<svg xmlns="http://www.w3.org/2000/svg" viewBox="0 0 500 500" width="500" height="500">
<rect width="500" height="500" rx="12" fill="#1a1b27"/>
<defs><filter id="glow" x="-50%" y="-50%" width="200%" height="200%"><feGaussianBlur stdDeviation="2" result="b"/><feMerge><feMergeNode in="b"/><feMergeNode in="SourceGraphic"/></feMerge></filter></defs>
<circle cx="250" cy="250" r="65.0" fill="none" stroke="#292e42" stroke-width="0.5"/>
<circle cx="250" cy="250" r="86.7" fill="none" stroke="#292e42" stroke-width="0.5"/>
<circle cx="250" cy="250" r="108.3" fill="none" stroke="#292e42" stroke-width="0.5"/>
<circle cx="250" cy="250" r="130.0" fill="none" stroke="#292e42" stroke-width="0.5"/>
<circle cx="250" cy="250" r="151.7" fill="none" stroke="#292e42" stroke-width="0.5"/>
<circle cx="250" cy="250" r="173.3" fill="none" stroke="#292e42" stroke-width="0.5"/>
<circle cx="250" cy="250" r="195.0" fill="none" stroke="#292e42" stroke-width="0.5"/>
<line x1="250.0" y1="191.0" x2="250.0" y2="51.0" stroke="#292e42" stroke-width="0.5"/>
<line x1="291.7" y1="208.3" x2="390.7" y2="109.3" stroke="#292e42" stroke-width="0.5"/>
<line x1="309.0" y1="250.0" x2="449.0" y2="250.0" stroke="#292e42" stroke-width="0.5"/>
<line x1="291.7" y1="291.7" x2="390.7" y2="390.7" stroke="#292e42" stroke-width="0.5"/>
<line x1="250.0" y1="309.0" x2="250.0" y2="449.0" stroke="#292e42" stroke-width="0.5"/>
<line x1="208.3" y1="291.7" x2="109.3" y2="390.7" stroke="#292e42" stroke-width="0.5"/>
<line x1="191.0" y1="250.0" x2="51.0" y2="250.0" stroke="#292e42" stroke-width="0.5"/>
<line x1="208.3" y1="208.3" x2="109.3" y2="109.3" stroke="#292e42" stroke-width="0.5"/>
<text x="250.0" y="37.0" text-anchor="middle" dominant-baseline="central" fill="#565f89" font-family="monospace" font-size="10">00</text>
<text x="400.6" y="99.4" text-anchor="middle" dominant-baseline="central" fill="#565f89" font-family="monospace" font-size="10">03</text>
<text x="463.0" y="250.0" text-anchor="middle" dominant-baseline="central" fill="#565f89" font-family="monospace" font-size="10">06</text>
<text x="400.6" y="400.6" text-anchor="middle" dominant-baseline="central" fill="#565f89" font-family="monospace" font-size="10">09</text>
<text x="250.0" y="463.0" text-anchor="middle" dominant-baseline="central" fill="#565f89" font-family="monospace" font-size="10">12</text>
<text x="99.4" y="400.6" text-anchor="middle" dominant-baseline="central" fill="#565f89" font-family="monospace" font-size="10">15</text>
<text x="37.0" y="250.0" text-anchor="middle" dominant-baseline="central" fill="#565f89" font-family="monospace" font-size="10">18</text>
<text x="99.4" y="99.4" text-anchor="middle" dominant-baseline="central" fill="#565f89" font-family="monospace" font-size="10">21</text>
<circle cx="250.0" cy="185.0" r="8.0" fill="#7dcfff" opacity="1.00" filter="url(#glow)"/>
<circle cx="266.8" cy="187.2" r="6.8" fill="#78bffe" opacity="0.74" filter="url(#glow)"/>
<circle cx="282.5" cy="193.7" r="4.7" fill="#72adfd" opacity="0.44" filter="url(#glow)"/>
<circle cx="296.0" cy="204.0" r="3.0" fill="#70a6fd" opacity="0.32" filter="url(#glow)"/>
<circle cx="266.8" cy="312.8" r="3.0" fill="#70a6fd" opacity="0.32" filter="url(#glow)"/>
<circle cx="250.0" cy="315.0" r="3.8" fill="#71a8fd" opacity="0.36" filter="url(#glow)"/>
<circle cx="233.2" cy="312.8" r="5.2" fill="#73b1fd" opacity="0.50" filter="url(#glow)"/>
<circle cx="217.5" cy="306.3" r="4.5" fill="#72acfd" opacity="0.42" filter="url(#glow)"/>
<circle cx="204.0" cy="296.0" r="4.5" fill="#72acfd" opacity="0.42" filter="url(#glow)"/>
<circle cx="193.7" cy="282.5" r="4.7" fill="#72adfd" opacity="0.44" filter="url(#glow)"/>
<circle cx="187.2" cy="266.8" r="4.0" fill="#71a9fd" opacity="0.38" filter="url(#glow)"/>
<circle cx="185.0" cy="250.0" r="4.7" fill="#72adfd" opacity="0.44" filter="url(#glow)"/>
<circle cx="187.2" cy="233.2" r="4.9" fill="#72aefd" opacity="0.46" filter="url(#glow)"/>
<circle cx="193.7" cy="217.5" r="5.2" fill="#73b1fd" opacity="0.50" filter="url(#glow)"/>
<circle cx="204.0" cy="204.0" r="4.5" fill="#72acfd" opacity="0.42" filter="url(#glow)"/>
<circle cx="217.5" cy="193.7" r="6.4" fill="#77bbfe" opacity="0.68" filter="url(#glow)"/>
<circle cx="233.2" cy="187.2" r="7.1" fill="#79c3fe" opacity="0.80" filter="url(#glow)"/>
<circle cx="250.0" cy="163.3" r="6.9" fill="#78c0fe" opacity="0.76" filter="url(#glow)"/>
<circle cx="272.4" cy="166.3" r="6.5" fill="#77bdfe" opacity="0.70" filter="url(#glow)"/>
<circle cx="293.3" cy="174.9" r="5.9" fill="#75b7fd" opacity="0.60" filter="url(#glow)"/>
<circle cx="311.3" cy="188.7" r="4.0" fill="#71a9fd" opacity="0.38" filter="url(#glow)"/>
<circle cx="325.1" cy="206.7" r="4.5" fill="#72acfd" opacity="0.42" filter="url(#glow)"/>
<circle cx="333.7" cy="227.6" r="3.4" fill="#70a7fd" opacity="0.34" filter="url(#glow)"/>
<circle cx="336.7" cy="250.0" r="3.0" fill="#70a6fd" opacity="0.32" filter="url(#glow)"/>
<circle cx="333.7" cy="272.4" r="4.7" fill="#72adfd" opacity="0.44" filter="url(#glow)"/>
<circle cx="325.1" cy="293.3" r="3.4" fill="#70a7fd" opacity="0.34" filter="url(#glow)"/>
<circle cx="293.3" cy="325.1" r="3.0" fill="#70a6fd" opacity="0.32" filter="url(#glow)"/>
<circle cx="272.4" cy="333.7" r="3.0" fill="#70a6fd" opacity="0.32" filter="url(#glow)"/>
<circle cx="250.0" cy="336.7" r="4.7" fill="#72adfd" opacity="0.44" filter="url(#glow)"/>
<circle cx="227.6" cy="333.7" r="5.0" fill="#73affd" opacity="0.48" filter="url(#glow)"/>
<circle cx="206.7" cy="325.1" r="5.0" fill="#73affd" opacity="0.48" filter="url(#glow)"/>
<circle cx="188.7" cy="311.3" r="5.7" fill="#74b4fd" opacity="0.56" filter="url(#glow)"/>
<circle cx="174.9" cy="293.3" r="6.6" fill="#77befe" opacity="0.72" filter="url(#glow)"/>
<circle cx="166.3" cy="272.4" r="6.2" fill="#76b9fd" opacity="0.64" filter="url(#glow)"/>
<circle cx="163.3" cy="250.0" r="5.5" fill="#74b3fd" opacity="0.54" filter="url(#glow)"/>
<circle cx="166.3" cy="227.6" r="5.0" fill="#73affd" opacity="0.48" filter="url(#glow)"/>
<circle cx="174.9" cy="206.7" r="6.2" fill="#76b9fd" opacity="0.64" filter="url(#glow)"/>
<circle cx="188.7" cy="188.7" r="6.2" fill="#76b9fd" opacity="0.64" filter="url(#glow)"/>
<circle cx="206.7" cy="174.9" r="5.2" fill="#73b1fd" opacity="0.50" filter="url(#glow)"/>
<circle cx="227.6" cy="166.3" r="5.5" fill="#74b3fd" opacity="0.54" filter="url(#glow)"/>
<circle cx="250.0" cy="141.7" r="5.0" fill="#73affd" opacity="0.48" filter="url(#glow)"/>
<circle cx="278.0" cy="145.4" r="5.7" fill="#74b4fd" opacity="0.56" filter="url(#glow)"/>
<circle cx="304.2" cy="156.2" r="3.8" fill="#71a8fd" opacity="0.36" filter="url(#glow)"/>
<circle cx="326.6" cy="173.4" r="3.4" fill="#70a7fd" opacity="0.34" filter="url(#glow)"/>
<circle cx="304.2" cy="343.8" r="3.0" fill="#70a6fd" opacity="0.32" filter="url(#glow)"/>
<circle cx="250.0" cy="358.3" r="4.7" fill="#72adfd" opacity="0.44" filter="url(#glow)"/>
<circle cx="222.0" cy="354.6" r="4.7" fill="#72adfd" opacity="0.44" filter="url(#glow)"/>
<circle cx="195.8" cy="343.8" r="5.5" fill="#74b3fd" opacity="0.54" filter="url(#glow)"/>
<circle cx="173.4" cy="326.6" r="6.3" fill="#76bafe" opacity="0.66" filter="url(#glow)"/>
<circle cx="156.2" cy="304.2" r="5.4" fill="#74b2fd" opacity="0.52" filter="url(#glow)"/>
<circle cx="145.4" cy="278.0" r="3.8" fill="#71a8fd" opacity="0.36" filter="url(#glow)"/>
<circle cx="141.7" cy="250.0" r="6.1" fill="#75b8fd" opacity="0.62" filter="url(#glow)"/>
<circle cx="145.4" cy="222.0" r="5.5" fill="#74b3fd" opacity="0.54" filter="url(#glow)"/>
<circle cx="156.2" cy="195.8" r="7.5" fill="#7ac7fe" opacity="0.88" filter="url(#glow)"/>
<circle cx="173.4" cy="173.4" r="5.9" fill="#75b7fd" opacity="0.60" filter="url(#glow)"/>
<circle cx="195.8" cy="156.2" r="5.0" fill="#73affd" opacity="0.48" filter="url(#glow)"/>
<circle cx="222.0" cy="145.4" r="5.4" fill="#74b2fd" opacity="0.52" filter="url(#glow)"/>
<circle cx="250.0" cy="120.0" r="5.9" fill="#75b7fd" opacity="0.60" filter="url(#glow)"/>
<circle cx="283.6" cy="124.4" r="4.9" fill="#72aefd" opacity="0.46" filter="url(#glow)"/>
<circle cx="315.0" cy="137.4" r="4.9" fill="#72aefd" opacity="0.46" filter="url(#glow)"/>
<circle cx="341.9" cy="158.1" r="4.7" fill="#72adfd" opacity="0.44" filter="url(#glow)"/>
<circle cx="362.6" cy="185.0" r="4.7" fill="#72adfd" opacity="0.44" filter="url(#glow)"/>
<circle cx="375.6" cy="216.4" r="4.3" fill="#71abfd" opacity="0.40" filter="url(#glow)"/>
<circle cx="380.0" cy="250.0" r="4.3" fill="#71abfd" opacity="0.40" filter="url(#glow)"/>
<circle cx="375.6" cy="283.6" r="4.0" fill="#71a9fd" opacity="0.38" filter="url(#glow)"/>
<circle cx="362.6" cy="315.0" r="3.8" fill="#71a8fd" opacity="0.36" filter="url(#glow)"/>
<circle cx="341.9" cy="341.9" r="3.8" fill="#71a8fd" opacity="0.36" filter="url(#glow)"/>
<circle cx="315.0" cy="362.6" r="3.4" fill="#70a7fd" opacity="0.34" filter="url(#glow)"/>
<circle cx="250.0" cy="380.0" r="3.8" fill="#71a8fd" opacity="0.36" filter="url(#glow)"/>
<circle cx="185.0" cy="362.6" r="3.0" fill="#70a6fd" opacity="0.32" filter="url(#glow)"/>
<circle cx="158.1" cy="341.9" r="5.7" fill="#74b4fd" opacity="0.56" filter="url(#glow)"/>
<circle cx="137.4" cy="315.0" r="5.9" fill="#75b7fd" opacity="0.60" filter="url(#glow)"/>
<circle cx="124.4" cy="283.6" r="4.5" fill="#72acfd" opacity="0.42" filter="url(#glow)"/>
<circle cx="120.0" cy="250.0" r="6.2" fill="#76b9fd" opacity="0.64" filter="url(#glow)"/>
<circle cx="124.4" cy="216.4" r="4.3" fill="#71abfd" opacity="0.40" filter="url(#glow)"/>
<circle cx="137.4" cy="185.0" r="5.4" fill="#74b2fd" opacity="0.52" filter="url(#glow)"/>
<circle cx="158.1" cy="158.1" r="5.5" fill="#74b3fd" opacity="0.54" filter="url(#glow)"/>
<circle cx="185.0" cy="137.4" r="5.4" fill="#74b2fd" opacity="0.52" filter="url(#glow)"/>
<circle cx="216.4" cy="124.4" r="7.0" fill="#78c1fe" opacity="0.78" filter="url(#glow)"/>
<circle cx="250.0" cy="98.3" r="6.3" fill="#76bafe" opacity="0.66" filter="url(#glow)"/>
<circle cx="289.3" cy="103.5" r="4.5" fill="#72acfd" opacity="0.42" filter="url(#glow)"/>
<circle cx="325.8" cy="118.7" r="4.5" fill="#72acfd" opacity="0.42" filter="url(#glow)"/>
<circle cx="357.2" cy="142.8" r="4.7" fill="#72adfd" opacity="0.44" filter="url(#glow)"/>
<circle cx="381.3" cy="174.2" r="4.0" fill="#71a9fd" opacity="0.38" filter="url(#glow)"/>
<circle cx="381.3" cy="325.8" r="3.0" fill="#70a6fd" opacity="0.32" filter="url(#glow)"/>
<circle cx="357.2" cy="357.2" r="3.4" fill="#70a7fd" opacity="0.34" filter="url(#glow)"/>
<circle cx="325.8" cy="381.3" r="3.0" fill="#70a6fd" opacity="0.32" filter="url(#glow)"/>
<circle cx="289.3" cy="396.5" r="5.4" fill="#74b2fd" opacity="0.52" filter="url(#glow)"/>
<circle cx="250.0" cy="401.7" r="4.3" fill="#71abfd" opacity="0.40" filter="url(#glow)"/>
<circle cx="210.7" cy="396.5" r="7.6" fill="#7bcafe" opacity="0.92" filter="url(#glow)"/>
<circle cx="174.2" cy="381.3" r="5.5" fill="#74b3fd" opacity="0.54" filter="url(#glow)"/>
<circle cx="142.8" cy="357.2" r="5.0" fill="#73affd" opacity="0.48" filter="url(#glow)"/>
<circle cx="118.7" cy="325.8" r="4.3" fill="#71abfd" opacity="0.40" filter="url(#glow)"/>
<circle cx="103.5" cy="289.3" r="5.2" fill="#73b1fd" opacity="0.50" filter="url(#glow)"/>
<circle cx="98.3" cy="250.0" r="4.0" fill="#71a9fd" opacity="0.38" filter="url(#glow)"/>
<circle cx="103.5" cy="210.7" r="3.0" fill="#70a6fd" opacity="0.32" filter="url(#glow)"/>
<circle cx="118.7" cy="174.2" r="4.9" fill="#72aefd" opacity="0.46" filter="url(#glow)"/>
<circle cx="142.8" cy="142.8" r="6.5" fill="#77bdfe" opacity="0.70" filter="url(#glow)"/>
<circle cx="174.2" cy="118.7" r="7.3" fill="#7ac5fe" opacity="0.84" filter="url(#glow)"/>
<circle cx="210.7" cy="103.5" r="7.0" fill="#78c1fe" opacity="0.78" filter="url(#glow)"/>
<circle cx="250.0" cy="76.7" r="7.6" fill="#7bcafe" opacity="0.92" filter="url(#glow)"/>
<circle cx="294.9" cy="82.6" r="6.6" fill="#77befe" opacity="0.72" filter="url(#glow)"/>
<circle cx="336.7" cy="99.9" r="6.5" fill="#77bdfe" opacity="0.70" filter="url(#glow)"/>
<circle cx="372.6" cy="127.4" r="4.3" fill="#71abfd" opacity="0.40" filter="url(#glow)"/>
<circle cx="400.1" cy="163.3" r="4.0" fill="#71a9fd" opacity="0.38" filter="url(#glow)"/>
<circle cx="417.4" cy="205.1" r="4.9" fill="#72aefd" opacity="0.46" filter="url(#glow)"/>
<circle cx="423.3" cy="250.0" r="3.0" fill="#70a6fd" opacity="0.32" filter="url(#glow)"/>
<circle cx="417.4" cy="294.9" r="4.0" fill="#71a9fd" opacity="0.38" filter="url(#glow)"/>
<circle cx="400.1" cy="336.7" r="3.8" fill="#71a8fd" opacity="0.36" filter="url(#glow)"/>
<circle cx="372.6" cy="372.6" r="4.9" fill="#72aefd" opacity="0.46" filter="url(#glow)"/>
<circle cx="336.7" cy="400.1" r="3.0" fill="#70a6fd" opacity="0.32" filter="url(#glow)"/>
<circle cx="294.9" cy="417.4" r="4.5" fill="#72acfd" opacity="0.42" filter="url(#glow)"/>
<circle cx="205.1" cy="417.4" r="3.4" fill="#70a7fd" opacity="0.34" filter="url(#glow)"/>
<circle cx="163.3" cy="400.1" r="4.3" fill="#71abfd" opacity="0.40" filter="url(#glow)"/>
<circle cx="127.4" cy="372.6" r="3.8" fill="#71a8fd" opacity="0.36" filter="url(#glow)"/>
<circle cx="99.9" cy="336.7" r="4.9" fill="#72aefd" opacity="0.46" filter="url(#glow)"/>
<circle cx="82.6" cy="294.9" r="5.4" fill="#74b2fd" opacity="0.52" filter="url(#glow)"/>
<circle cx="76.7" cy="250.0" r="5.0" fill="#73affd" opacity="0.48" filter="url(#glow)"/>
<circle cx="82.6" cy="205.1" r="5.2" fill="#73b1fd" opacity="0.50" filter="url(#glow)"/>
<circle cx="99.9" cy="163.3" r="5.4" fill="#74b2fd" opacity="0.52" filter="url(#glow)"/>
<circle cx="127.4" cy="127.4" r="5.2" fill="#73b1fd" opacity="0.50" filter="url(#glow)"/>
<circle cx="163.3" cy="99.9" r="5.5" fill="#74b3fd" opacity="0.54" filter="url(#glow)"/>
<circle cx="205.1" cy="82.6" r="4.9" fill="#72aefd" opacity="0.46" filter="url(#glow)"/>
<circle cx="250.0" cy="55.0" r="5.5" fill="#74b3fd" opacity="0.54" filter="url(#glow)"/>
<circle cx="300.5" cy="61.6" r="4.3" fill="#71abfd" opacity="0.40" filter="url(#glow)"/>
<circle cx="347.5" cy="81.1" r="5.2" fill="#73b1fd" opacity="0.50" filter="url(#glow)"/>
<circle cx="387.9" cy="112.1" r="4.7" fill="#72adfd" opacity="0.44" filter="url(#glow)"/>
<circle cx="418.9" cy="152.5" r="3.4" fill="#70a7fd" opacity="0.34" filter="url(#glow)"/>
<circle cx="438.4" cy="300.5" r="3.8" fill="#71a8fd" opacity="0.36" filter="url(#glow)"/>
<circle cx="418.9" cy="347.5" r="3.0" fill="#70a6fd" opacity="0.32" filter="url(#glow)"/>
<circle cx="347.5" cy="418.9" r="3.4" fill="#70a7fd" opacity="0.34" filter="url(#glow)"/>
<circle cx="250.0" cy="445.0" r="4.7" fill="#72adfd" opacity="0.44" filter="url(#glow)"/>
<circle cx="199.5" cy="438.4" r="5.7" fill="#74b4fd" opacity="0.56" filter="url(#glow)"/>
<circle cx="152.5" cy="418.9" r="5.4" fill="#74b2fd" opacity="0.52" filter="url(#glow)"/>
<circle cx="112.1" cy="387.9" r="4.3" fill="#71abfd" opacity="0.40" filter="url(#glow)"/>
<circle cx="81.1" cy="347.5" r="4.7" fill="#72adfd" opacity="0.44" filter="url(#glow)"/>
<circle cx="61.6" cy="300.5" r="4.5" fill="#72acfd" opacity="0.42" filter="url(#glow)"/>
<circle cx="55.0" cy="250.0" r="4.0" fill="#71a9fd" opacity="0.38" filter="url(#glow)"/>
<circle cx="61.6" cy="199.5" r="4.5" fill="#72acfd" opacity="0.42" filter="url(#glow)"/>
<circle cx="81.1" cy="152.5" r="4.9" fill="#72aefd" opacity="0.46" filter="url(#glow)"/>
<circle cx="112.1" cy="112.1" r="6.1" fill="#75b8fd" opacity="0.62" filter="url(#glow)"/>
<circle cx="152.5" cy="81.1" r="7.0" fill="#78c1fe" opacity="0.78" filter="url(#glow)"/>
<circle cx="199.5" cy="61.6" r="6.6" fill="#77befe" opacity="0.72" filter="url(#glow)"/>
<text x="270.9" y="188.4" text-anchor="middle" dominant-baseline="central" fill="#565f89" font-family="monospace" font-size="7" opacity="0.6">Mon</text>
<text x="277.9" y="167.9" text-anchor="middle" dominant-baseline="central" fill="#565f89" font-family="monospace" font-size="7" opacity="0.6">Tue</text>
<text x="284.8" y="147.4" text-anchor="middle" dominant-baseline="central" fill="#565f89" font-family="monospace" font-size="7" opacity="0.6">Wed</text>
<text x="291.8" y="126.9" text-anchor="middle" dominant-baseline="central" fill="#565f89" font-family="monospace" font-size="7" opacity="0.6">Thu</text>
<text x="298.8" y="106.4" text-anchor="middle" dominant-baseline="central" fill="#565f89" font-family="monospace" font-size="7" opacity="0.6">Fri</text>
<text x="305.7" y="85.9" text-anchor="middle" dominant-baseline="central" fill="#565f89" font-family="monospace" font-size="7" opacity="0.6">Sat</text>
<text x="312.7" y="65.3" text-anchor="middle" dominant-baseline="central" fill="#565f89" font-family="monospace" font-size="7" opacity="0.6">Sun</text>
</svg>